<svg version="1.1" id="Layer_1" xmlns="http://www.w3.org/2000/svg" xmlns:xlink="http://www.w3.org/1999/xlink" x="0px" y="0px" width="32px" height="32px" viewBox="0 0 32 32" enable-background="new 0 0 32 32" xml:space="preserve">
  <g id="main">
    <g id="icon">
      <path d="M1.839,5.534L1.525,5.632L1.24,5.787L0.9922,5.992L0.7871,6.24L0.6322,6.525L0.5342,6.839L0.5,7.175L0.5,25.83L0.5342,26.16L0.6322,26.48L0.7871,26.76L0.9922,27.01L1.24,27.21L1.525,27.37L1.839,27.47L2.175,27.5L17.39,27.5L17.26,27.34L17.12,27.08L17.03,26.8L17,26.5L17,23.5L17.03,23.2L17.12,22.92L17.26,22.66L17.44,22.44L17.66,22.26L17.92,22.12L18.2,22.03L18.5,22L22,22L22,18.5L22.03,18.2L22.12,17.92L22.26,17.66L22.44,17.44L22.66,17.26L22.92,17.12L23.2,17.03L23.5,17L26.5,17L26.8,17.03L27.08,17.12L27.34,17.26L27.56,17.44L27.74,17.66L27.88,17.92L27.97,18.2L28,18.5L28,22L29.5,22L29.5,7.175L29.47,6.839L29.37,6.525L29.21,6.24L29.01,5.992L28.76,5.787L28.48,5.632L28.16,5.534L27.83,5.5L2.175,5.5zz" fill="#FFFFFF"/>
      <path d="M8.143,12.07L7.481,12.23L6.963,12.48L6.576,12.84L6.301,13.28L6.125,13.8L6.03,14.39L6.002,15.06L6.093,16.04L6.354,17.11L6.77,18.15L7.032,18.62L7.326,19.05L7.319,19.3L7.239,19.51L7.074,19.69L6.808,19.83L5.024,20.51L4.405,20.77L3.935,21.03L3.589,21.31L3.34,21.65L3.164,22.07L3.036,22.62L2.979,23.42L3.036,23.8L3.172,24.28L3.263,24.42L3.43,24.55L3.955,24.74L4.681,24.87L5.54,24.95L7.389,25L8.966,25L10.55,25L12.41,24.95L13.28,24.87L14.01,24.74L14.54,24.55L14.71,24.43L14.81,24.28L14.94,23.81L15,23.42L14.94,22.62L14.81,22.07L14.63,21.65L14.39,21.31L14.04,21.03L13.57,20.77L12.95,20.51L11.17,19.83L10.9,19.69L10.74,19.51L10.66,19.3L10.65,19.05L10.95,18.63L11.21,18.15L11.62,17.11L11.89,16.04L11.98,15.06L11.95,14.39L11.85,13.8L11.66,13.28L11.38,12.84L10.98,12.48L10.46,12.23L9.789,12.07L8.965,12.01zz" fill-rule="evenodd" fill="#cfcfcf"/>
      <path d="M17.18,14.11L17,14.4L17.05,14.73L17.3,14.96L17.49,15L26.5,15L26.82,14.89L26.99,14.6L26.94,14.27L26.69,14.04L26.5,14L17.49,14zM17.18,16.11L17,16.4L17.05,16.73L17.3,16.96L17.49,17L23.5,17L26.5,17L26.82,16.89L26.99,16.6L26.94,16.27L26.69,16.04L26.5,16L17.49,16zM17.18,18.11L17,18.4L17.05,18.73L17.3,18.96L17.49,19L22,19L22,18.5L22.03,18.2L22.09,18L17.49,18zM17.18,20.11L17,20.4L17.05,20.73L17.3,20.96L17.49,21L22,21L22,20L17.49,20zM17.18,22.11L17,22.4L17.05,22.73L17.16,22.84L17.26,22.66L17.44,22.44L17.66,22.26L17.92,22.12L18.2,22.03L18.5,22L17.49,22zz" fill="#cfcfcf"/>
      <path d="M14.4,0.06094L13.83,0.2357L13.32,0.5123L12.88,0.8787L12.51,1.323L12.24,1.832L12.06,2.395L12,3L10,3L9.597,3.041L9.221,3.157L8.882,3.341L8.586,3.586L8.341,3.882L8.157,4.221L8.041,4.597L8,5L8,7.332L8.054,7.592L8.202,7.804L8.421,7.947L8.69,8L21.31,8L21.58,7.947L21.8,7.804L21.95,7.592L22,7.332L22,5L21.96,4.597L21.84,4.221L21.66,3.882L21.41,3.586L21.12,3.341L20.78,3.157L20.4,3.041L20,3L18,3L17.94,2.395L17.76,1.832L17.49,1.323L17.12,0.8787L16.68,0.5123L16.17,0.2357L15.6,0.06094L15,0zM15.3,1.48L15.58,1.565L15.84,1.699L16.06,1.876L16.24,2.091L16.38,2.338L16.47,2.61L16.5,2.903L16.47,3.196L16.38,3.468L16.24,3.715L16.06,3.93L15.84,4.107L15.58,4.241L15.3,4.326L15,4.355L14.7,4.326L14.42,4.241L14.16,4.107L13.94,3.93L13.76,3.715L13.62,3.468L13.53,3.196L13.5,2.903L13.53,2.61L13.62,2.338L13.76,2.091L13.94,1.876L14.16,1.699L14.42,1.565L14.7,1.48L15,1.451zz" fill="#cfcfcf"/>
      <path d="M1.737,5.044L1.329,5.171L0.96,5.372L0.6379,5.638L0.3721,5.96L0.1713,6.329L0.04434,6.737L0,7.175L0,25.83L0.04434,26.26L0.1713,26.67L0.3721,27.04L0.6379,27.36L0.96,27.63L1.329,27.83L1.737,27.96L2.175,28L18.5,28L18.2,27.97L17.92,27.88L17.66,27.74L17.44,27.56L17.26,27.34L17.12,27.08L17.09,27L2.175,27L1.718,26.91L1.345,26.66L1.092,26.28L1,25.83L1,7.175L1.092,6.718L1.345,6.345L1.718,6.092L2.175,6L7,6L7,5L2.175,5zM23,6L27.83,6L28.28,6.092L28.66,6.345L28.91,6.718L29,7.175L29,22L30,22L30,7.175L29.96,6.737L29.83,6.329L29.63,5.96L29.36,5.638L29.04,5.372L28.67,5.171L28.26,5.044L27.83,5L23,5zz" fill="#cfcfcf"/>
    </g>
    <g id="overlay">
          <path d="M31.5,23h-4.5v-4.5c0,-0.276,-0.224,-0.5,-0.5,-0.5h-3c-0.276,0,-0.5,0.224,-0.5,0.5v4.5h-4.5c-0.276,0,-0.5,0.224,-0.5,0.5v3c0,0.276,0.224,0.5,0.5,0.5h4.5v4.5c0,0.276,0.224,0.5,0.5,0.5h3c0.276,0,0.5,-0.224,0.5,-0.5v-4.5h4.5c0.276,0,0.5,-0.224,0.5,-0.5v-3C32,23.224,31.776,23,31.5,23z" fill-rule="evenodd" fill="#4EA17E"/>
  </g>

  </g>
</svg>