<svg version="1.1" id="Layer_1" xmlns="http://www.w3.org/2000/svg" xmlns:xlink="http://www.w3.org/1999/xlink" x="0px" y="0px" width="16px" height="16px" viewBox="0 0 16 16" enable-background="new 0 0 16 16" xml:space="preserve">
  <g id="main">
    <g id="icon">
      <path d="M1.839,3.534L1.525,3.632L1.24,3.787L0.9922,3.992L0.7871,4.24L0.6322,4.525L0.5342,4.839L0.5,5.175L0.5,12.83L0.5342,13.16L0.6322,13.48L0.7871,13.76L0.9922,14.01L1.24,14.21L1.525,14.37L1.839,14.47L2.175,14.5L9,14.5L9,14L7.3,14L7.038,13.97L6.794,13.9L6.381,13.62L6.102,13.21L6.026,12.96L6,12.7L6,10.3L6.026,10.04L6.102,9.794L6.381,9.381L6.794,9.102L7.038,9.026L7.3,9L9,9L9,7.3L9.026,7.038L9.102,6.794L9.381,6.381L9.794,6.102L10.04,6.026L10.3,6L12.7,6L12.96,6.026L13.21,6.102L13.62,6.381L13.9,6.794L13.97,7.038L14,7.3L14,9L14.5,9L14.5,5.175L14.47,4.839L14.37,4.525L14.21,4.24L14.01,3.992L13.76,3.787L13.48,3.632L13.16,3.534L12.83,3.5L2.175,3.5zM14,14.01L14.01,14.01L14.01,14L14,14zz" fill="#FFFFFF"/>
      <path d="M4.855,5.846L4.488,5.934L4.202,6.077L3.988,6.272L3.836,6.515L3.738,6.804L3.67,7.503L3.72,8.046L3.865,8.636L4.095,9.211L4.403,9.711L4.355,9.965L4.116,10.14L3.129,10.52L2.527,10.8L2.335,10.96L2.197,11.15L2.029,11.68L1.997,12.13L2.104,12.61L2.247,12.75L2.538,12.86L3.415,12.97L5.31,13L6.035,12.99L6.026,12.96L6,12.7L6,10.3L6.026,10.04L6.102,9.794L6.381,9.381L6.494,9.305L6.551,9.213L6.782,8.637L6.927,8.047L6.977,7.503L6.905,6.804L6.803,6.515L6.646,6.272L6.426,6.077L6.136,5.934L5.766,5.846L5.31,5.816zz" fill-rule="evenodd" fill="#cfcfcf"/>
      <path d="M1.737,3.044L1.329,3.171L0.959,3.371L0.6371,3.637L0.3715,3.959L0.1709,4.329L0.04414,4.737L0,5.175L0,12.83L0.04414,13.26L0.1709,13.67L0.3715,14.04L0.6371,14.36L0.959,14.63L1.329,14.83L1.737,14.96L2.175,15L9,15L9,14L7.3,14L2.175,14L1.718,13.91L1.344,13.66L1.092,13.28L1,12.83L1,5.175L1.092,4.718L1.344,4.344L1.718,4.092L2.175,4L2.5,4L2.695,3.961L2.854,3.854L2.961,3.695L3,3.5L2.961,3.305L2.854,3.146L2.695,3.039L2.5,3L2.175,3zM12.31,3.039L12.15,3.146L12.04,3.305L12,3.5L12.04,3.695L12.15,3.854L12.31,3.961L12.5,4L12.83,4L13.28,4.092L13.66,4.344L13.91,4.718L14,5.175L14,7.3L14,9L15,9L15,5.175L14.96,4.737L14.83,4.329L14.63,3.959L14.36,3.637L14.04,3.371L13.67,3.171L13.26,3.044L12.83,3L12.5,3zM14,14.65L14.04,14.63L14.36,14.36L14.63,14.04L14.65,14L14,14zz" fill="#cfcfcf"/>
      <path d="M7.017,0.05566L6.661,0.1664L6.338,0.3416L6.057,0.5736L5.825,0.8549L5.649,1.178L5.539,1.534L5.5,1.917L5.5,2L5.017,2L4.621,2.08L4.298,2.298L4.08,2.621L4,3.017L4,4.5L4.039,4.695L4.146,4.854L4.305,4.961L4.5,5L10.5,5L10.69,4.961L10.85,4.854L10.96,4.695L11,4.5L11,2.992L10.92,2.606L10.71,2.29L10.39,2.078L10.01,2L9.5,2L9.5,1.917L9.461,1.534L9.351,1.177L9.175,0.8545L8.943,0.5732L8.662,0.3414L8.339,0.1662L7.983,0.05566L7.6,0.01699L7.4,0.01699zM7.889,1.079L8.207,1.293L8.421,1.611L8.5,2L8.421,2.389L8.207,2.707L7.889,2.921L7.5,3L7.111,2.921L6.793,2.707L6.579,2.389L6.5,2L6.579,1.611L6.793,1.293L7.111,1.079L7.5,1zz" fill="#cfcfcf"/>
    </g>
    <g id="overlay">
      <path d="M15.7,10h-2.7V7.3c0,-0.166,-0.134,-0.3,-0.3,-0.3h-2.4c-0.166,0,-0.3,0.134,-0.3,0.3v2.7H7.3c-0.166,0,-0.3,0.134,-0.3,0.3v2.4c0,0.166,0.134,0.3,0.3,0.3h2.7v2.7c0,0.166,0.134,0.3,0.3,0.3h2.4c0.166,0,0.3,-0.134,0.3,-0.3v-2.7h2.7c0.166,0,0.3,-0.134,0.3,-0.3v-2.4C16,10.134,15.866,10,15.7,10z" fill="#4EA17E"/>
    </g>
  </g>
</svg>