<svg version="1.1" id="Layer_1" xmlns="http://www.w3.org/2000/svg" xmlns:xlink="http://www.w3.org/1999/xlink" x="0px" y="0px" width="16px" height="16px" viewBox="0 0 16 16" enable-background="new 0 0 16 16" xml:space="preserve">
  <g id="main">
    <g id="icon">
      <path d="M1.839,3.534L1.525,3.632L1.24,3.787L0.9922,3.992L0.7871,4.24L0.6322,4.525L0.5342,4.839L0.5,5.175L0.5,12.83L0.5342,13.16L0.6322,13.48L0.7871,13.76L0.9922,14.01L1.24,14.21L1.525,14.37L1.839,14.47L2.175,14.5L6.049,14.5L6.001,14.25L6.097,13.75L6.218,13.53L6.387,13.32L8.237,11.47L6.387,9.618L6.221,9.416L6.1,9.19L6.025,8.944L6,8.684L6.025,8.424L6.1,8.178L6.221,7.951L6.387,7.75L7.749,6.388L7.951,6.222L8.177,6.101L8.423,6.026L8.683,6.001L8.943,6.026L9.189,6.101L9.416,6.222L9.617,6.388L11.47,8.238L13.32,6.388L13.52,6.222L13.75,6.101L13.99,6.026L14.25,6.001L14.5,6.025L14.5,5.175L14.47,4.839L14.37,4.525L14.21,4.24L14.01,3.992L13.76,3.787L13.48,3.632L13.16,3.534L12.83,3.5L2.175,3.5zz" fill="#FFFFFF"/>
      <path d="M4.855,5.846L4.488,5.934L4.202,6.077L3.988,6.272L3.836,6.515L3.738,6.804L3.67,7.503L3.72,8.046L3.865,8.636L4.095,9.211L4.403,9.711L4.355,9.965L4.116,10.14L3.129,10.52L2.527,10.8L2.335,10.96L2.197,11.15L2.029,11.68L1.997,12.13L2.104,12.61L2.247,12.75L2.538,12.86L3.415,12.97L5.31,13L6.725,12.98L8.237,11.47L7.147,10.38L6.529,10.14L6.29,9.966L6.243,9.713L6.338,9.559L6.221,9.416L6.1,9.19L6.025,8.944L6,8.684L6.025,8.424L6.1,8.178L6.221,7.951L6.387,7.75L6.945,7.192L6.905,6.804L6.803,6.515L6.646,6.272L6.426,6.077L6.136,5.934L5.766,5.846L5.31,5.816zz" fill-rule="evenodd" fill="#cfcfcf"/>
      <path d="M11.23,8L11.71,8L12.67,7.034L12.5,7L10.23,7zz" fill="#cfcfcf"/>
      <path d="M1.737,3.044L1.329,3.171L0.959,3.371L0.6371,3.637L0.3715,3.959L0.1709,4.329L0.04414,4.737L0,5.175L0,12.83L0.04414,13.26L0.1709,13.67L0.3715,14.04L0.6371,14.36L0.959,14.63L1.329,14.83L1.737,14.96L2.175,15L6.235,15L6.218,14.98L6.097,14.75L6.001,14.25L6.05,14L2.175,14L1.718,13.91L1.344,13.66L1.092,13.28L1,12.83L1,5.175L1.092,4.718L1.344,4.344L1.718,4.092L2.175,4L2.5,4L2.695,3.961L2.854,3.854L2.961,3.695L3,3.5L2.961,3.305L2.854,3.146L2.695,3.039L2.5,3L2.175,3zM12.31,3.039L12.15,3.146L12.04,3.305L12,3.5L12.04,3.695L12.15,3.854L12.31,3.961L12.5,4L12.83,4L13.28,4.092L13.66,4.344L13.91,4.718L14,5.175L14,6.026L14.25,6.001L14.51,6.026L14.76,6.101L14.98,6.222L15,6.236L15,5.175L14.96,4.737L14.83,4.329L14.63,3.959L14.36,3.637L14.04,3.371L13.67,3.171L13.26,3.044L12.83,3L12.5,3zM14.7,11.47L15,11.77L15,11.17zM11.17,15L11.77,15L11.47,14.7zz" fill="#cfcfcf"/>
      <path d="M7.017,0.05566L6.661,0.1664L6.338,0.3416L6.057,0.5736L5.825,0.8549L5.649,1.178L5.539,1.534L5.5,1.917L5.5,2L5.017,2L4.621,2.08L4.298,2.298L4.08,2.621L4,3.017L4,4.5L4.039,4.695L4.146,4.854L4.305,4.961L4.5,5L10.5,5L10.69,4.961L10.85,4.854L10.96,4.695L11,4.5L11,2.992L10.92,2.606L10.71,2.29L10.39,2.078L10.01,2L9.5,2L9.5,1.917L9.461,1.534L9.351,1.177L9.175,0.8545L8.943,0.5732L8.662,0.3414L8.339,0.1662L7.983,0.05566L7.6,0.01699L7.4,0.01699zM7.889,1.079L8.207,1.293L8.421,1.611L8.5,2L8.421,2.389L8.207,2.707L7.889,2.921L7.5,3L7.111,2.921L6.793,2.707L6.579,2.389L6.5,2L6.579,1.611L6.793,1.293L7.111,1.079L7.5,1zz" fill="#cfcfcf"/>
    </g>
    <g id="overlay">
      <path d="M15.906,14.544l-1.362,1.362c-0.125,0.125,-0.329,0.125,-0.454,0l-2.622,-2.622l-2.557,2.557c-0.125,0.125,-0.329,0.125,-0.454,0l-1.362,-1.362c-0.125,-0.125,-0.125,-0.329,0,-0.454l2.557,-2.557L7.094,8.911c-0.125,-0.125,-0.125,-0.329,0,-0.454l1.362,-1.362c0.125,-0.125,0.329,-0.125,0.454,0l2.557,2.557l2.557,-2.557c0.125,-0.125,0.329,-0.125,0.454,0l1.362,1.362c0.125,0.125,0.125,0.329,0,0.454l-2.557,2.557l2.622,2.622C16.031,14.215,16.031,14.418,15.906,14.544z" fill-rule="evenodd" fill="#CD4C32"/>
    </g>
  </g>
</svg>